<?xml version="1.0" encoding="utf-8"?>
<!-- Generator: Adobe Illustrator 19.0.1, SVG Export Plug-In . SVG Version: 6.00 Build 0)  -->
<svg version="1.1" id="Lager_1" xmlns="http://www.w3.org/2000/svg" xmlns:xlink="http://www.w3.org/1999/xlink" x="0px" y="0px"
	 viewBox="0 0 145 206" style="enable-background:new 0 0 145 206;" xml:space="preserve">
<style type="text/css">
	.st0{fill:#FFFFFF;}
</style>
<g>
	<path d="M145,0c0,68.3,0,137.7,0,206c-48.3,0-96.7,0-145,0C0,137.3,0,68.3,0-0.4c1.2-0.1,2.3,0.1,3.5,0.1c45.3,0,90.9-5.4,135.8,0
		C141.1-0.1,143.1-0.4,145,0z M6.5,101.9c0,30.5,0.1,61-0.1,91.5c0,4.4,1.3,5.7,5.7,5.7c39.8-0.1,79.7-0.1,119.5-0.1
		c6.3,0,6.5-0.2,6.5-6.5c0-60.2,0-120.3,0.1-180.5c0-4.8-1.3-6.3-6.2-6.3c-40,0.2-80,0.2-120,0c-4.5,0-5.6,1.4-5.6,5.7
		C6.6,41.6,6.5,71.7,6.5,101.9z"/>
	<path class="st0" d="M145,0c-2,0-3.9,0-5.8,0C94-0.1,48.7-0.3,3.5-0.3c-1.2,0-2.9-0.1-4.1,0C-0.3-1,0.5-1.8,1-1.9
		C2.1-2.2,3.3-2,4.5-2C51.3-2,98.2-2,145-2C145-1,145-1,145,0z"/>
	<path d="M72.5,16.3c16.6,0,33.3,0.1,49.9-0.1c4,0,5.6,1,5.5,5.3c-0.3,11-0.2,22,0,32.9c0.1,3.5-1.1,4.7-4.6,4.7
		c-34.1-0.1-68.2-0.1-102.3,0c-3.7,0-4.4-1.5-4.4-4.8c0.2-11.1,0.2-22.3,0-33.4c-0.1-4,1.5-4.7,5-4.7C38.6,16.4,55.5,16.3,72.5,16.3
		z M72.5,53.1c14.8,0,29.6-0.1,44.4,0.1c3.7,0,5.1-1.2,4.9-4.9c-0.3-4.3-0.1-8.7-0.1-13c0-12.8,0-12.8-12.9-12.8
		c-26.8,0-53.6,0.1-80.4-0.1c-4.1,0-6.1,0.7-5.8,5.4c0.4,6.8,0.3,13.6,0,20.5c-0.2,3.8,1.2,4.9,4.8,4.8C42.6,53,57.5,53.1,72.5,53.1
		z"/>
	<path d="M34.2,177.5c-8.3,0.1-15-6.5-15.1-14.7c-0.1-8.1,6.5-15.1,14.6-15.4c7.9-0.3,15.2,7.2,15.2,15.4
		C48.9,170.8,42.1,177.5,34.2,177.5z M34.3,171.3c4.4-0.1,8.7-4.7,8.4-8.9c-0.2-4.2-5-8.7-9-8.5c-4.3,0.2-8.6,4.9-8.4,9.1
		C25.5,167.4,29.9,171.5,34.3,171.3z"/>
	<path d="M57.5,125.4c0-8.4,6.6-15.2,14.7-15.1c8,0.1,14.8,7.1,14.7,15.3c-0.1,7.9-6.8,14.7-14.7,14.8
		C63.9,140.5,57.5,133.9,57.5,125.4z M72.2,116.5c-4.4-0.1-8.5,4.1-8.5,8.7c0,4.5,4,8.9,8.3,9c4.4,0.1,8.4-3.9,8.5-8.7
		C80.5,120.9,76.6,116.6,72.2,116.5z"/>
	<path d="M72.2,72.4C80.4,72.3,87,78.8,87,86.8c-0.1,7.7-6.9,14.6-14.7,14.8c-7.9,0.2-14.9-6.8-14.9-15
		C57.4,78.5,63.6,72.5,72.2,72.4z M72.1,78.6c-4.5,0-8.5,3.7-8.5,8.1c0,4.5,4.2,8.7,8.7,8.6c4-0.1,8.3-4.5,8.4-8.6
		C80.9,82.7,76.6,78.7,72.1,78.6z"/>
	<path d="M48.3,125.2c0,8.3-6.7,15.2-14.7,15.2c-7.7,0-14.4-6.9-14.5-14.9c-0.1-8.1,6.9-15.3,14.7-15.2
		C41.5,110.3,48.3,117.3,48.3,125.2z M42.1,125.4c0.1-4.3-4.3-9-8.4-8.9c-4,0.1-8.4,4.7-8.4,9c0,3.9,4.4,8.7,8.1,8.7
		C37.6,134.3,41.9,129.8,42.1,125.4z"/>
	<path d="M124.4,125.5c-0.1,8.1-6.3,14.3-14.2,14.3c-8.2,0-14.5-6.8-14.4-15.3c0.1-8,6.4-14.3,14.3-14.3
		C118.4,110.2,124.5,116.7,124.4,125.5z M110.1,116.3c-4,0-7.9,4.2-8,8.5c0,4.3,3.8,8.6,7.9,8.8c4,0.2,8.1-4,8.2-8.4
		C118.4,120.8,114.4,116.4,110.1,116.3z"/>
	<path d="M57.5,163c0.1-8.4,6.3-14.5,14.5-14.4c8.2,0.1,14.6,6.9,14.4,15.2c-0.2,8.2-6.6,14.2-14.9,14.1
		C63.3,177.8,57.3,171.5,57.5,163z M80.1,163.2c0-4.4-3.9-8.3-8.2-8.4c-4.2,0-8.2,4-8.2,8.3c0,4.7,4,8.8,8.5,8.6
		C76.5,171.6,80.1,167.7,80.1,163.2z"/>
	<path d="M18.8,86.9c-0.1-8.1,6.2-14.3,14.5-14.5c8.3-0.2,15,6.4,15,14.6c-0.1,7.7-7.1,14.5-14.8,14.6
		C25.8,101.6,18.8,94.7,18.8,86.9z M33.5,78.6c-4.2-0.1-8.6,4-8.6,8.1c0,4.1,4,8.3,8.3,8.5c4.4,0.2,8.9-4.1,8.8-8.4
		C42,82.6,37.9,78.7,33.5,78.6z"/>
	<path d="M124.8,87c0.1,8.2-6.4,15-14.2,15c-7.7,0-14.4-7-14.4-15c0-8,6.3-14.4,14.1-14.5C118.4,72.3,124.8,78.7,124.8,87z
		 M110.3,78.6c-4.1,0.1-8.1,4.6-7.9,8.7c0.2,4.1,4.7,8.5,8.4,8.3c4.1-0.2,8-4.6,7.8-8.8C118.5,82.7,114.2,78.5,110.3,78.6z"/>
	<path d="M111,177.5c-7.9,0.1-14.4-6.5-14.4-14.7c0-7.6,6.4-14.2,13.8-14.2c7.5,0,13.8,6.3,14,14C124.5,170.9,118.7,177.4,111,177.5
		z M118.3,163.2c0-4.4-3.6-8.4-7.6-8.4c-4,0-7.8,4.1-7.8,8.3c0.1,3.8,4.5,8.3,8,8.2C114.5,171.3,118.3,167.1,118.3,163.2z"/>
</g>
</svg>
