<?xml version="1.0" encoding="utf-8"?>
<!-- Generator: Adobe Illustrator 19.0.1, SVG Export Plug-In . SVG Version: 6.00 Build 0)  -->
<svg version="1.1" id="Lager_1" xmlns="http://www.w3.org/2000/svg" xmlns:xlink="http://www.w3.org/1999/xlink" x="0px" y="0px"
	 viewBox="0 0 105 113.7" style="enable-background:new 0 0 105 113.7;" xml:space="preserve">
<g>
	<path d="M60.5,112.4c-2.9-0.3-4.7-2.5-6.6-4.4c-0.7-0.7-1.4-2-1.2-3c0.6-5.1-1.1-9.9-2.2-14.7c-0.7-2.7-1-5.5-1.5-8.2
		c-0.5-3.1-1.8-5.9-3.7-8.4c-2.1-2.8-4.1-5.6-5.2-9c-1.7-5.6-1-10.9,2.3-15.7c4.4-6.6,10.6-11,18.5-10.6C72.5,39,79.3,45,81.8,54.6
		c0.7,2.9,1.5,5.8,0.6,8.7c-1.1,3.7-2.7,7.2-5.3,10.1c-2,2.2-3,4.7-3.5,7.5c-0.6,3.6-1.2,7.2-1.9,10.7c-0.2,0.9-0.5,1.8-0.9,2.6
		c-1.5,2.6-2.2,5.4-2,8.5c0.4,4.7-2.4,8.4-7,9.6c-0.1,0-0.1,0.1-0.2,0.2C61.3,112.4,60.9,112.4,60.5,112.4z M61,93c0,0,0,0.1,0,0.1
		c0.9-0.1,1.8-0.1,2.6-0.5c0.7-0.3,1.5-1,1.7-1.7c0.6-2.1,1.1-4.3,1.2-6.5c0.3-4.8,1.8-9.1,4.4-13.1c1.6-2.4,2.9-5,4.4-7.5
		c1.3-2.2,1.5-4.4,0.9-6.9c-2.5-10.8-14.7-15.7-23.6-9.5c-5.8,4-8,9.8-6.1,16c0.8,2.7,2.3,4.9,4.1,7c2.5,2.9,4.1,6.3,4.7,10.1
		c0.5,3.2,1,6.3,1.5,9.5c0.4,2.1,1.3,2.9,3.5,3C60.4,93.1,60.7,93,61,93z M66.4,99.6c-1.8-1.5-8.7-1.7-10.3-0.4
		c0.5,1.6,0.8,1.8,2.4,1.8c1.9-0.1,3.8-0.1,5.6-0.3C64.9,100.5,65.6,100,66.4,99.6z M55.8,104c2.6,3,7.5,2.3,9.8,0.9
		c0.6-0.4,0.3-0.9-0.2-1.1c-0.3-0.1-0.7-0.1-1.1-0.1c-1.9,0-3.8,0-5.7,0.1C57.7,103.8,56.9,103.9,55.8,104z"/>
	<path d="M101.5,58.2c-0.5,0.3-1.1,0.8-1.6,0.8c-2.8,0.1-5.7,0.1-8.5,0c-0.5,0-1.2-0.2-1.6-0.6c-1-1.1-0.5-2.4,1-2.8
		c2.9-0.7,5.8-0.7,8.7-0.1c0.7,0.2,1.4,0.7,2,1C101.5,57.1,101.5,57.6,101.5,58.2z"/>
	<path d="M15.8,26.7c-1.6,0-3.1,0-4.7,0c-0.5-3,0.1-5.5,2.3-7.7c1.2-1.2,2.5-2.5,3.6-3.8c1.2-1.5,1.3-3.1,0.5-4.8
		c-1.2-2.5-4.7-3.1-6.7-1.1C9.6,10.5,9,12,8.9,13.7c-0.1,0.8-0.4,1-1.1,1c-1,0-2.1,0-3.1,0C4.4,7.7,10.4,3,16.8,5
		c5,1.5,7.1,7.3,4,11.6c-0.8,1.1-1.7,2.1-2.7,3.1c-1.8,1.7-2.7,3.6-2.4,6.1C15.9,26,15.8,26.3,15.8,26.7z"/>
	<path d="M25.1,58.2c-1.3,0-2.6,0.1-3.9,0c-0.8,0-1.8-0.2-1.9-1.3c-0.2-1.1,0.3-1.9,1.3-2.3c0.5-0.2,1-0.5,1.5-0.5
		c2.1-0.1,4.3-0.1,6.4,0c0.5,0,1.2,0.2,1.4,0.6c0.4,0.7,0.9,1.6,0.8,2.5c0,0.9-1,0.9-1.8,0.9C27.5,58.1,26.3,58.1,25.1,58.2
		C25.1,58.1,25.1,58.1,25.1,58.2z"/>
	<path d="M62.6,21.6c0,1.3,0,2.6,0,3.9c0,1-0.4,1.6-1.5,1.7c-1,0.1-2,0-2.1-1.3c-0.2-2.4-0.4-4.7-0.4-7.1c0-0.9,0.6-1.9,1.1-2.7
		c0.8-1.1,2.1-0.9,2.6,0.4c0.2,0.5,0.2,1.1,0.3,1.6C62.6,19.3,62.6,20.4,62.6,21.6z"/>
	<path d="M36.1,41.8c-2.1,0.5-3.9,0.3-5.6-0.7c-1.6-1-3.2-1.9-4.7-2.8c-1.2-0.7-1.6-1.6-1.1-2.4c0.5-0.9,1.8-1.3,2.9-0.7
		c2.3,1.3,4.5,2.7,6.7,4.2C35,39.9,35.5,40.9,36.1,41.8z"/>
	<path d="M94.5,79c-0.5-0.2-0.8-0.2-1-0.3c-2.3-1.3-4.5-2.5-6.7-3.8c-1.4-0.8-1.6-2.4-0.5-3.1c0.5-0.3,1.6-0.5,2.1-0.2
		c2.1,1.2,4.2,2.6,6.2,4.1c0.8,0.6,1.5,1.4,0.8,2.6C95.2,78.5,94.8,78.7,94.5,79z"/>
	<path d="M34.5,72.2c-0.3,0.3-0.6,1-1.2,1.4c-2.2,1.4-4.6,2.6-6.9,3.9c-1.1,0.6-1.4-0.4-1.9-0.9c-0.6-0.7-0.4-1.4,0.4-1.9
		c1.5-1,3-1.9,4.5-2.9c0.7-0.5,1.5-0.9,2.3-1.3C33.2,69.8,34.6,70.5,34.5,72.2z"/>
	<path d="M76.8,31.2c-1.5,0-2.3-1.2-1.7-2.2c1.2-2.2,2.4-4.5,3.7-6.7c0.9-1.5,2.5-1.5,3.2-0.1c0.2,0.4,0.2,1.1-0.1,1.5
		c-1.3,2.3-2.6,4.5-4,6.7C77.6,30.8,77,31,76.8,31.2z"/>
	<path d="M96.1,36.2c0.2,1.3,0,2.3-1,2.8c-2.5,1.4-5.1,2.6-7.6,3.9c-0.2,0.1-0.5,0.1-0.8,0.2c-0.9-1.7-0.6-3.3,1.1-4.1
		c2-1,4.1-1.9,6.1-2.7C94.6,36.1,95.4,36.2,96.1,36.2z"/>
	<path d="M46.6,29.8c-0.3,0.3-0.6,0.9-0.9,1c-0.6,0.1-1.5,0-1.8-0.4c-1.5-2.4-3-4.8-4.4-7.3c-0.5-0.9,0-1.9,0.8-2.5
		c0.3-0.2,1.2-0.1,1.4,0.2c1.6,2.7,3.1,5.4,4.6,8.1C46.5,29,46.5,29.3,46.6,29.8z"/>
	<path d="M10.8,30.2c1.8,0,3.6,0,5.3,0c0,1.9,0,3.7,0,5.6c-1.8,0-3.5,0-5.3,0C10.8,33.9,10.8,32.1,10.8,30.2z"/>
	<path d="M61.4,69.8c-0.6,0-1.2,0-1.9,0c-0.6-5.2-1.3-10.4-1-15.7c0-0.7,0.2-1,1-1c0.9,0.1,1.8,0,2.9,0C63,58.8,61.9,64.2,61.4,69.8
		z"/>
	<path d="M58.6,75.9c0-1.3,0-2.5,0-3.7c1.2,0,2.4,0,3.6,0c0,1.3,0,2.5,0,3.7C61,75.9,59.8,75.9,58.6,75.9z"/>
</g>
</svg>
