<?xml version="1.0" encoding="utf-8"?>
<!-- Generator: Adobe Illustrator 19.0.1, SVG Export Plug-In . SVG Version: 6.00 Build 0)  -->
<svg version="1.1" id="Lager_1" xmlns="http://www.w3.org/2000/svg" xmlns:xlink="http://www.w3.org/1999/xlink" x="0px" y="0px"
	 viewBox="0 0 229 218" style="enable-background:new 0 0 229 218;" xml:space="preserve">
<style type="text/css">
	.st0{fill:none;stroke:#FFFFFF;stroke-miterlimit:10;}
</style>
<g>
	<path d="M1.2,169.7c0-1.9,0-3.8,0-5.8c0.2-0.4,0.6-0.7,0.7-1.1c0.3-2.2,1.5-3.8,3.1-5.3c6.2-5.9,12.4-11.7,18.6-17.7
		c4.6-4.4,9.2-9,13.9-13.4c5.5-5.3,11-10.5,16.6-15.8c1.3-1.3,1.4-2.1,0.5-3.6c-2.6-4-4.3-8.5-5.2-13.2c-0.9-4.4-1.5-8.9-2.2-13.3
		c0-0.3,0-0.6,0-0.8c0.8-4.5,1.4-9,2.5-13.4c1.5-6.4,3.6-12.6,8-17.8c1.4-1.7,2.7-3.6,4.1-5.3c2.6-3,3.7-6.3,3.5-10.4
		c-0.3-8-0.1-16.1-0.2-24.1c0-2.6,0.3-5.1,1.1-7.6c54.8,0,109.6,0,164.4,0c0,72,0,144.1,0,216.1c0,1.5-0.3,1.8-1.7,1.9
		c-0.2,0-0.5,0-0.7,0c-8.7,0-17.4,0.1-26,0.1c-17.4,0-34.9,0-52.3,0c-26.8,0-53.6,0-80.4,0.1c-2.9,0-4.2,0-4.2-4.2
		c0-27.2,0-54.3,0-81.5c0-0.7-0.1-1.3-0.3-2.5c-1.1,0.7-2,1.2-2.7,1.9c-13.2,13.3-26.4,26.7-39.7,40.1c-0.8,0.8-1.6,1.7-2.6,2.2
		c-5.2,2.7-10.5,2.6-15.5-0.5c-1.3-0.8-2.1-2-2.3-3.6C1.8,170.7,1.4,170.2,1.2,169.7z M159.7,78.9c0,0.2,0,0.3,0,0.5
		c0.6,0.2,1.3,0.5,1.9,0.6c0.6,0.1,1.3,0,1.9,0c14.1,0,28.2-0.1,42.2-0.1c1.5,0,3,0.1,4.2,1.1c1.5,1.1,1.3,3.2-0.4,4
		c-0.6,0.3-1.2,0.4-1.9,0.4c-15.6,0-31.3-0.1-46.9-0.1c-0.6,0-1.3,0.1-1.1,0.8c0.1,0.3,0.7,0.8,1,0.8c6,0,12,0,18,0
		c5.9,0,11.8,0,17.6,0c3.4,0,6.8,0,10.2,0c1.4,0,2.7,0.3,3.7,1.4c1,1,1,1.9,0,2.9c-0.9,0.9-1.9,1.2-3.1,1.2
		c-4.6-0.1-9.2-0.1-13.8-0.1c-10,0-19.9,0-29.9,0.1c-1,0-2,0-3,0.1c-0.4,0-0.9,0.2-1.4,0.4c0.9,1.3,2.1,1.1,3.1,1.1
		c11.7,0,23.4,0,35,0c3.8,0,7.7,0,11.5,0c1.4,0,2.2,0.6,2.4,1.7c0.2,1.2-0.2,2.2-1.5,2.7c-1.2,0.4-2.5,0.7-3.7,0.8
		c-12.8,0.1-25.7,0.1-38.5,0.1c-2.7,0-5.4,0-8,0c-0.4,0-0.8-0.1-1.2,0.1c-0.5,0.2-1,0.5-1.6,0.8c0.9,1.3,2.1,0.9,3,0.9
		c14.9,0,29.8,0,44.8,0.1c1.4,0,2.9,0.3,4.3,0.6c1.7,0.4,2.1,1.2,1.9,3.3c-0.2,1.5-0.9,2.2-2.6,2.2c-5.1,0-10.2,0-15.4,0
		c-11.8,0-23.7,0-35.5-0.1c-0.7,0-1.4,0.1-2.1,0.2c-0.5,0.1-0.9,0.4-1.3,0.7c0,0.1,0,0.3,0.1,0.4c0.5,0.1,1,0.4,1.5,0.4
		c1.5,0,3,0,4.4,0c14.6,0,29.2,0,43.8,0c1.4,0,2.7,0,4.1,0c1.7,0,3.3,1.4,3.5,2.8c0.1,1.3-1.1,2.7-2.8,3c-1.4,0.3-2.9,0.6-4.4,0.6
		c-8.2,0.1-16.4,0.1-24.6,0.1c-5.1,0-10.2,0-15.2,0.1c-3.5,0-7,0.1-10.4-0.8c-2.7-0.7-5-0.1-7,2c-4.8,5.3-10.4,9.7-16.3,13.7
		c-0.4,0.3-0.7,0.6-1.3,1.2c0.9,0.2,1.5,0.3,2,0.3c3.9,0,7.8,0,11.8,0.1c1.7,0,2.7,1,2.7,2.6c0,1.5-0.9,2.5-2.5,2.7
		c-0.8,0.1-1.7,0.2-2.5,0.2c-10.8,0-21.7,0.1-32.5,0.1c-0.6,0-1.2,0.1-1.8,0.1c0.3,0.3,0.5,0.3,0.8,0.3c9,0,18.1,0,27.1,0
		c2.6,0,5.1,0.1,7.7,0.2c1.3,0.1,2.4,0.7,3.3,1.8c0.7,0.9,0.7,1.7-0.1,2.6c-1.2,1.3-2.7,1.9-4.5,1.9c-15.5,0-31,0-46.4,0
		c-2.7,0-5.4-0.6-8.1-1c-1.1-0.2-1.5-1-1.5-2c0-0.9-0.1-2,1.1-2.2c3.4-0.7,6.7-1.5,10.2-1.1c1.7,0.2,3.4,0,5.1,0c0-0.2,0-0.3,0-0.5
		c-0.4,0-0.8-0.1-1.2-0.1c-3.6,0-7.2-0.1-10.8-0.1c-2.1,0-3.7-0.9-4.8-2.8c-0.5-0.9-1.2-1.8-2-2.3c-1.7-1-3.5-1.7-5.3-2.5
		c-0.9-0.4-1.4,0-1.4,1c0,0.9-0.1,1.8-0.1,2.8c0,23.6,0,47.2,0,70.8c0,1,0.1,2,0.1,3c0,1.1,0.6,1.6,1.6,1.6c1.2,0,2.3,0.1,3.5,0.1
		c45.5,0,91,0,136.6,0c0.9,0,1.8-0.1,2.8-0.1c0.9,0,1.3-0.4,1.3-1.3c0-1,0.1-2,0.1-3c0-50.8,0-101.7,0-152.5c0-6.8,0-13.7,0-20.5
		c0-6.3-0.1-12.6-0.1-18.9c0-1-0.4-1.5-1.4-1.5c-0.9,0-1.8-0.1-2.8-0.1c-24.4,0-48.8-0.1-73.2-0.1c-21.6,0-43.3,0-64.9,0
		c-0.6,0-1.3,0.1-1.9,0.1c-1.2,0-1.6,0.6-1.6,1.7c0,5.6,0,11.1,0,16.7c0,0.7,0.2,1.5,0.3,2.3c0.5-0.2,0.9-0.3,1.3-0.5
		c6-3.6,12.6-5.2,19.4-6c3.1-0.4,6.2-1.2,9.4-0.6c2,0.4,4.1,0.6,6.2,0.9c13.5,2.3,25.1,8,34,18.8c4.5,5.4,8.5,11.1,10.6,17.9
		c0.1,0.5,0.5,1,0.9,1.2c1.1,0.3,2.2,0.6,3.3,0.6c14.6,0.1,29.3,0.1,43.9,0.1c1.3,0,2.6,0.2,3.8,0.3c1.4,0.2,2.5,1.3,2.6,2.6
		c0.1,1.2-0.7,2.4-2.2,2.7c-0.8,0.2-1.6,0.3-2.4,0.3c-14.4,0-28.9,0.1-43.3,0.1c-0.6,0-1.3-0.1-1.9,0c-0.7,0.1-1.6-0.2-1.6,1
		c0.1,1,0.9,0.8,1.6,0.8c1.2,0,2.3-0.1,3.5-0.1c11,0.1,22.1,0.2,33.1,0.2c3.3,0,6.6-0.1,9.8-0.1c2,0,2.9,0.9,2.9,2.7
		c0,2.1-1.1,3.1-3.5,3.1c-5.3-0.2-10.5-0.4-15.8-0.5c-8.6-0.1-17.2,0-25.8,0.1c-1.5,0-3,0.4-4.5,0.7
		C160.5,78.3,160.1,78.7,159.7,78.9z M109.1,107.2c8,0,16.1,0,24.1,0c2.6,0,5-0.5,6.6-2.6c0.5-0.7,1-1.7,0.9-2.4
		c-0.2-1.1-1.5-0.9-2.4-0.9c-14.4,0-28.7-0.1-43.1-0.1c-3.6,0-7.2,0-10.8,0c-0.5,0-1,0-1.6-0.1c-1.1-0.1-1.7-0.7-1.8-1.8
		c-0.1-1-0.1-2.1-0.1-3.1c0-2.5,0.7-3.1,3.2-3.2c2.4,0,4.8-0.1,7.2-0.1c13.4,0,26.8,0,40.2,0.1c3.7,0,7.3,0.3,11,0.6
		c2,0.1,2.7-0.2,3.1-2.1c0.7-3.6,1.6-7.1,1.2-10.8c-0.3-3.4-0.7-6.8-1.1-10.1c-0.1-0.7-0.1-1.5-0.5-2c-1.1-1.2-1.3-2.6-1.4-4
		c0-0.4-0.2-0.9-0.4-1.2c-3.6-6.7-7.9-12.8-14.1-17.4c-10.8-8-22.9-9.9-36-7.4c-8.7,1.7-15.9,6-21.8,12.6
		c-5.3,5.8-8.8,12.6-10.4,20.3c-0.3,1.4-0.7,2.9-0.9,4.3c-0.3,1.8-0.8,3.7-0.6,5.6c0.5,6.7,2.5,13.1,5.7,19c2.2,4.1,4.6,8,8,11.2
		c9.2,8.9,20.3,13.1,33,12.3c7.8-0.5,15.4-2.1,21.8-7.1c0.5-0.4,0.6-1.2,0.9-1.8c-0.5-0.2-1-0.6-1.6-0.6c-3,0-6,0-9,0
		c-6.2,0-12.4,0-18.6,0c-5.4,0-10.9,0-16.3,0c-1.4,0-2-0.6-2.2-2c-0.1-0.8-0.1-1.6-0.1-2.4c0-2.4,0.5-2.9,2.9-2.9
		C92.3,107.2,100.7,107.2,109.1,107.2z"/>
	<path d="M179.9,189c8.8,0,17.5,0,26.3,0c0.6,0,1.1,0,1.7,0.1c2,0.2,2.9,1.1,2.9,3c0,1.9-0.9,2.9-2.9,3.1c-0.5,0.1-1,0.1-1.6,0.1
		c-8.2,0-16.4,0-24.6,0c-9.1,0-18.2,0.1-27.3,0.1c-1.5,0-3,0-4.2-1.2c-0.7-0.7-1.1-1.6-0.8-2.6c0.4-1.1,1-2.1,2.3-2.4
		c0.7-0.1,1.4-0.1,2-0.1C162.4,189,171.2,189,179.9,189z"/>
	<path d="M116.4,167c8.5,0,16.9,0,25.4,0c1.4,0,2.5,0.4,3.1,1.8c0.7,1.6,0.2,3.1-1.6,4c-1,0.5-2.2,0.7-3.3,0.7
		c-13.2,0-26.4,0-39.6,0c-3.5,0-7,0.1-10.4,0.1c-2.1,0-4-0.7-5.4-2.4c-1-1.3-0.8-2.4,0.8-2.8c2.2-0.6,4.4-1.1,6.7-1.2
		C100.2,167,108.3,167,116.4,167z"/>
	<path d="M179.4,166.4c-8.2,0-16.3,0-24.5,0c-1.1,0-2.3-0.2-3.4-0.4c-1.4-0.3-2-1-2.1-2.2c-0.1-1.4,0.6-2.7,1.8-3.1
		c0.8-0.3,1.7-0.4,2.6-0.4c8.4,0,16.8,0,25.2,0c8.9,0,17.8,0,26.7,0.1c1.1,0,2.2,0.2,3.3,0.5c1.2,0.4,1.7,1.4,1.6,2.6
		c-0.1,1.5-0.6,2.2-2,2.4c-2,0.3-4,0.6-5.9,0.6C194.9,166.5,187.2,166.4,179.4,166.4C179.4,166.4,179.4,166.4,179.4,166.4z"/>
	<path d="M179.3,173.2c-8.4,0-16.8,0-25.2,0c-1.1,0-2.1-0.3-3.1-0.6c-1.1-0.3-1.6-1.3-1.6-2.4c0-1.2,0.5-2.2,1.6-2.6
		c0.9-0.3,1.9-0.5,2.8-0.5c4.4,0,8.8,0,13.2,0c12.5,0,25-0.1,37.5-0.1c1.3,0,2.6,0,4,0.2c1.5,0.1,2,0.8,2.2,2.4
		c0.2,1.6-0.2,2.6-1.6,2.9c-1.7,0.4-3.5,0.7-5.2,0.7C195.6,173.3,187.4,173.2,179.3,173.2z"/>
	<path d="M181.1,182.3c8.2,0,16.4,0,24.6,0c1,0,2,0.1,3,0.3c1.8,0.4,2.5,1,2.4,2.3c-0.1,1.5-1.3,3-2.7,3.2c-1.3,0.2-2.5,0.2-3.8,0.3
		c-7.8,0-15.7,0-23.5,0c-9.2,0-18.4-0.1-27.6-0.1c-1.7,0-3.1-0.3-3.9-2c-0.8-1.7-0.2-3,1.6-3.3c2.2-0.3,4.5-0.7,6.8-0.7
		C165.7,182.2,173.4,182.3,181.1,182.3z"/>
	<path d="M180.4,130c8.5,0,17,0,25.6,0c1.1,0,2.2,0.2,3.3,0.5c1.3,0.4,1.8,1.4,1.6,2.9c-0.1,1.3-0.7,2.1-2,2.4
		c-1.4,0.3-2.8,0.5-4.3,0.5c-14.6,0-29.1,0-43.7-0.1c-3.1,0-6.1-0.4-9.2-0.7c-1.5-0.1-2.1-0.8-2.3-2c-0.2-1.4,0.3-2.4,1.6-2.8
		c1.2-0.4,2.5-0.7,3.7-0.7C163.3,130,171.8,130,180.4,130z"/>
	<path d="M115.2,195.2c-8.7,0-17.4,0-26,0c-1.6,0-3-0.3-4.2-1.4c-1.2-1.1-1.2-2.3,0-3.3c1.2-1,2.5-1.8,4.1-1.5c0.4,0.1,0.9,0,1.3,0
		c16.6,0,33.3,0,49.9,0c0.9,0,1.9,0.1,2.8,0.4c1.4,0.4,2.4,1.8,2.2,3c-0.2,1.4-1.4,2.6-2.9,2.7c-0.4,0-0.9,0-1.3,0
		C132.5,195.2,123.8,195.2,115.2,195.2z"/>
	<path d="M180.8,143c-7.6,0-15.1,0-22.7,0c-2.2,0-4.5-0.3-6.7-0.6c-1.8-0.3-2.3-0.9-2.2-2.3c0-1.4,1.1-2.6,2.5-2.8
		c1.2-0.2,2.5-0.3,3.7-0.3c8,0.1,15.9,0.2,23.9,0.2c9.2,0,18.4-0.1,27.6-0.2c0.5,0,1,0,1.4,0.1c1.4,0.3,2.6,1.5,2.6,2.6
		c0,1.1-1.1,2.5-2.5,2.8c-2.1,0.4-4.2,0.7-6.3,0.8c-7.1,0.1-14.2,0-21.4,0C180.8,143.2,180.8,143.1,180.8,143z"/>
	<path d="M114.9,166.3c-8.7,0-17.4,0-26.1,0c-1.7,0-3.2-0.5-4.2-2.1c-0.8-1.2-0.5-2,0.8-2.7c2.5-1.3,5.1-1.2,7.7-1.2
		c15.7-0.1,31.4-0.2,47.1-0.2c0.6,0,1.2,0.1,1.8,0.2c1.9,0.3,3.3,1.6,3.2,3.2c-0.1,1.4-1.6,2.7-3.4,2.9c-0.5,0-1,0-1.4,0
		C131.9,166.3,123.4,166.3,114.9,166.3C114.9,166.3,114.9,166.3,114.9,166.3z"/>
	<path d="M115.2,182.2c8.2,0,16.5,0,24.7,0c1.4,0,2.9,0.3,4.1,0.9c1.9,1,1.8,2.5,0.2,3.9c-1.1,1-2.5,1.2-3.9,1.2c-1.5,0-3,0-4.6,0
		c-12.5,0-24.9,0.1-37.4,0c-3.9,0-7.8-0.6-11.7-0.9c-0.2,0-0.4,0-0.6-0.1c-1.2-0.3-1.9-1.1-1.9-2.3c0-1.1,0.6-1.9,1.9-2.1
		c1.9-0.3,3.8-0.6,5.7-0.6C99.6,182.2,107.4,182.3,115.2,182.2C115.2,182.3,115.2,182.2,115.2,182.2z"/>
	<path d="M179.9,153c9.1,0,18.2,0,27.3,0c0.9,0,1.8,0.1,2.7,0.4c1.4,0.5,1.8,1.8,1,3.1c-0.6,1-1.6,1.6-2.8,1.7
		c-0.8,0.1-1.5,0.1-2.3,0.1c-6.3,0-12.6,0-19,0c-10.9,0-21.8,0.1-32.8,0c-1.2,0-2.5-0.3-3.5-0.8c-1.3-0.6-1.9-1.9-1.5-2.9
		c0.3-1.1,1.2-1.6,2.8-1.6C161.2,153,170.6,153,179.9,153z"/>
	<path d="M179.5,146c5.6,0,11.1,0,16.7,0c3.6,0,7.1,0,10.7,0.1c1.2,0,2.4,0.5,3.5,0.9c1,0.4,1.1,1.2,0.7,2.1
		c-0.7,1.4-1.8,2.2-3.3,2.2c-2.6,0.1-5.2,0.1-7.8,0.1c-15.2,0-30.4,0-45.6,0.1c-1.8,0-3.5-0.4-4.7-1.9c-1.2-1.5-0.5-3.2,1.3-3.5
		c0.6-0.1,1.2-0.1,1.8-0.1C161.7,146,170.6,146,179.5,146C179.5,146,179.5,146,179.5,146z"/>
	<path d="M180.4,124c8.5,0,17,0,25.4,0c1.1,0,2.2,0,3.3,0.1c1.2,0.1,1.7,0.7,1.6,1.9c0,2.1-1.4,3.3-3.6,3.3c-11.4,0-22.9,0-34.3,0
		c-6,0-12.1,0.1-18.1,0.1c-0.9,0-1.8,0-2.6-0.2c-0.8-0.2-1.7-0.6-2.3-1.2c-1.3-1.2-0.8-3,0.8-3.5c0.8-0.3,1.6-0.4,2.5-0.4
		C162.3,124,171.3,124,180.4,124z"/>
	<path d="M114.8,175.1c8.7-0.1,17.3-0.3,26-0.4c2.3,0,3.5,0.6,4.2,2.2c0.8,1.9-0.1,3.3-2.1,3.4c-2,0.1-4,0-6,0c-6.4,0-12.7,0-19.1,0
		c-9.5,0-18.9,0.1-28.4,0.1c-1.3,0-2.6-0.4-3.8-0.9c-1.3-0.4-1.6-1.5-0.9-2.7c0.7-1.3,1.9-1.9,3.5-1.9c8.9,0,17.7,0,26.6,0
		C114.8,175,114.8,175.1,114.8,175.1z"/>
	<path d="M180.8,179.4c-6.5,0-13,0-19.6,0c-2.8,0-5.5,0.1-8.3-0.1c-1-0.1-2-0.6-2.8-1.2c-1-0.7-1-1.8-0.1-2.7c1.1-1.2,2.5-1.5,4-1.5
		c9.2,0,18.3,0,27.5,0c8.2,0,16.5,0,24.7,0c0.8,0,1.5,0,2.3,0.2c1.5,0.3,2.2,1.4,2.1,2.9c-0.1,1.3-1,2.1-2.5,2.3c-0.4,0-0.9,0-1.3,0
		C198.1,179.4,189.4,179.4,180.8,179.4z"/>
	<path d="M179.8,116c8.7,0,17.4,0,26.1,0c1,0,2.1,0.2,3.1,0.4c1.1,0.3,1.7,1,1.7,2.2c0,1.2-0.7,2.2-1.9,2.5
		c-0.5,0.1-1.1,0.2-1.7,0.2c-6.3,0-12.5,0-18.8,0c-6.2,0-12.4,0.1-18.6,0.1c-5.1,0-10.2,0-15.2-0.1c-1.2,0-2.5-0.4-3.7-0.7
		c-1-0.2-1.4-1-1.4-2c0-1,0.4-1.9,1.4-2.1c0.9-0.2,1.8-0.4,2.7-0.4C162.3,116,171,116,179.8,116z"/>
	<path d="M115,153c8.8,0,17.7,0,26.5,0c0.6,0,1.3,0,1.9,0.1c1.1,0.2,1.8,0.8,1.9,1.9c0.1,1.3-0.3,2-1.5,2.3
		c-1.6,0.4-3.3,0.8-4.9,0.8c-13.9,0.1-27.9,0.1-41.8,0.1c-2.8,0-5.6-0.1-8.4-0.1c-1.6,0-2.9-0.6-3.9-1.8c-0.9-0.9-0.8-2,0.3-2.6
		c0.9-0.5,2.1-0.8,3.2-0.9C97.1,153,106,153,115,153z"/>
	<path d="M115.4,151.5c-8.2,0-16.5,0.1-24.7,0c-1.6,0-3.3-0.5-4.9-1c-1.2-0.4-1.8-1.8-1.5-2.7c0.3-0.9,1.6-1.8,2.8-1.8
		c1.8,0,3.6,0.1,5.4,0.1c6.4,0,12.9,0.1,19.3,0.1c8.9,0,17.8-0.1,26.7-0.2c1.5,0,3,0.1,4.4,0.2c1.4,0.1,2.4,0.9,2.5,2
		c0.1,1.1-0.6,2.3-1.8,2.8c-0.8,0.3-1.8,0.5-2.7,0.5C132.4,151.5,123.9,151.4,115.4,151.5C115.4,151.5,115.4,151.5,115.4,151.5z"/>
	<path d="M111.3,74.4c-8.1,0-16.1,0-24.2,0c-1.4,0-2.9-0.1-4.3-0.1c-1,0-1.6-0.4-1.6-1.5c0-1.4-0.1-2.8-0.1-4.2
		c0-1.4,0.7-2.2,2.2-2.4c0.6-0.1,1.3-0.1,1.9-0.1c8.2,0,16.5,0,24.7,0c8.6,0,17.2-0.1,25.8,0c1.9,0,3.9,0.3,5.8,0.6
		c1.3,0.2,2.9,2,3,3c0.1,1.8-1,3.8-2.7,4.3c-1,0.3-2,0.4-3.1,0.4C129.6,74.5,120.4,74.4,111.3,74.4
		C111.3,74.4,111.3,74.4,111.3,74.4z"/>
	<path d="M113,79.1c7.6,0,15.3-0.1,22.9,0c2.3,0,4.6,0.6,6.9,1c1,0.2,1.6,0.9,1.6,2c0,1,0,2.1-0.1,3.1c-0.2,1.4-0.9,2.2-2.4,2.2
		c-4.3,0-8.6-0.1-12.9-0.1c-5.3,0-10.6,0.1-15.9,0.1c-0.1,0-0.2,0-0.4,0c-9.1,0-18.2,0-27.3-0.1c-2.8,0-4.4-1.6-4.3-4
		c0-1.6,0.8-2.8,2.3-3.2c2.4-0.6,4.8-1.1,7.2-1.2c7.6-0.2,15.1-0.1,22.7-0.1C113,79,113,79,113,79.1z"/>
</g>
<path class="st0" d="M117.3,138.5"/>
<path class="st0" d="M98.2,138.6"/>
</svg>
