<?xml version="1.0" encoding="utf-8"?>
<!-- Generator: Adobe Illustrator 19.0.1, SVG Export Plug-In . SVG Version: 6.00 Build 0)  -->
<svg version="1.1" id="Lager_1" xmlns="http://www.w3.org/2000/svg" xmlns:xlink="http://www.w3.org/1999/xlink" x="0px" y="0px"
	 viewBox="0 0 208.5 196.9" style="enable-background:new 0 0 208.5 196.9;" xml:space="preserve">
<style type="text/css">
	.st0{fill:#84B81A;}
	.st1{fill:#035393;}
</style>
<g>
	<path class="st0" d="M149.9,104.8c16.8,19.3,27.3,42,40.9,64c-12.6,0-24.1,0-35.7,0c-2.5,0-2.8-2.1-3.7-3.5
		c-7.4-12.6-14.7-25.3-22.1-37.9c-0.7-1.1-1.5-2.2-2.1-3.4c-3.2-6-7.6-9.1-14.8-8.2c-5.4,0.7-11,0-16.5,0.2
		c-2.6,0.1-3.5-0.8-3.4-3.4c0.1-6.5,0.2-13,0-19.5c-0.1-3,1.2-3.6,3.9-3.6c7.7,0.1,15.3,0.1,23,0c3.3-0.1,6.7-0.3,9.9-1.1
		c8.8-2.2,14.6-10.2,13.7-18.4c-0.9-8.7-8.1-15.1-17.5-15.2c-13.7-0.2-27.3-0.2-41,0c-3.5,0.1-4.6-0.9-4.4-4.4
		c0.3-6.5,0.1-13,0.1-19.5c0-1.4-0.4-3.2,2-3.1c20.3,0.8,40.7-2.4,60.8,2.2c21,4.8,32,19.5,31.1,40.9c-0.6,13.5-7.8,23.3-18.8,30.7
		C153.5,102.8,151.6,103.8,149.9,104.8z"/>
	<path class="st1" d="M34.2,98.3c0-22,0.1-44-0.1-66c0-3.8,1-4.8,4.7-4.6c7.8,0.3,15.7,0.3,23.5,0c3.8-0.1,5,0.8,5,4.8
		C67,67.4,67.2,102.2,67,137c0,4.1,0.8,5.3,5.1,5.3c14-0.3,28,0,42-0.2c2.9,0,4.2,0.6,4,3.8c-0.3,6.3-0.2,12.7,0,19
		c0.1,3-0.6,4-3.8,3.9c-25.5-0.1-51-0.1-76.5,0c-3.3,0-3.7-1.3-3.7-4.1C34.2,142.7,34.2,120.5,34.2,98.3z"/>
</g>
</svg>
